OMWAyembedt.sfdir
StartChar: B
Encoding: 66 66 1
Width: 547
Flags: W
HStem: -90 133<60.5 178.5> 620 40<55.1292 143.386 202.272 428.93> 655 20G<498.5 517.5>
VStem: 55 32<206.428 400.877> 159 42<515.904 604.281> 253 109<184.833 287.585> 463 67<480.143 659.632>
LayerCount: 2
Fore
SplineSet
89 620 m 0xde
 66 622 55 628 55 642 c 0
 55 655 71 660 103 660 c 10
 413 660 l 26xde
 451 660 488 675 509 675 c 0xbe
 526 675 530 665 530 648 c 0
 530 543 526 469 460 422 c 0
 444 411 428 405 421 405 c 0
 411 405 405 412 405 421 c 16
 405 431 463 454 463 500 c 0
 463 565 440 620 373 620 c 2
 238 620 l 18
 213 620 201 612 201 589 c 0
 201 541 206 532 213 524 c 0
 288 437 362 371 362 273 c 0
 362 154 239 42 108 -46 c 0
 88 -59 91 -90 67 -90 c 8
 54 -90 55 -72 55 -59 c 26
 55 367 l 18
 55 382 60 401 70 401 c 0
 80 401 85 382 87 365 c 0
 101 236 111 43 151 43 c 0
 206 43 253 152 253 224 c 0
 253 274 215 314 187 335 c 0
 170 348 159 383 159 416 c 26
 159 561 l 26
 159 597 135 616 89 620 c 0xde
EndSplineSet
Validated: 33
EndChar
StartChar: D
Encoding: 68 68 3
Width: 499
Flags: W
HStem: -90 21G<71 86.5> -90 21G<71 86.5> 620 55<246.498 347.81>
VStem: 60 35<-89.9074 291.922> 315 47<351.579 468.983> 399 75<267.999 487.91>
LayerCount: 2
Fore
SplineSet
326 620 m 0xbc
 120 620 95 287 95 98 c 2
 95 -46 l 10
 95 -64 94 -90 79 -90 c 0
 63 -90 60 -76 60 -45 c 10
 60 642 l 2
 60 655 76 660 108 660 c 2
 241 660 l 2
 297 660 316 675 333 675 c 0
 347 675 362 660 374 644 c 0
 438 558 474 447 474 357 c 0
 474 157 232 -85 198 -85 c 0
 188 -85 184 -82 184 -74 c 0
 184 -65 185 -62 192 -54 c 0
 212 -30 243 40 248 109 c 0
 249 121 250 124 258 129 c 0
 337 176 399 264 399 375 c 0
 399 435 391 478 373 537 c 0
 371 544 352 525 352 517 c 0
 352 510 362 479 362 466 c 0
 362 407 348 363 334 339 c 0
 330 331 325 320 316 320 c 8
 309 320 302 324 302 333 c 0
 302 342 315 379 315 399 c 0
 315 433 294 482 266 498 c 0
 258 502 249 508 249 517 c 0
 249 526 260 528 269 530 c 0
 311 539 348 569 348 609 c 0
 348 617 334 620 326 620 c 0xbc
EndSplineSet
Validated: 1
EndChar
StartChar: F
Encoding: 70 70 5
Width: 589
Flags: W
HStem: -90 21G<81.5 95> -90 21G<81.5 95> 330 85<302 469.621> 620 55<474.033 544.146> 620 40<172.308 348.937>
VStem: 54 38<399.319 517.961> 74 470<-61 398> 74 36<-89.4506 31.5593> 523 38<173.584 259.214>
LayerCount: 2
Fore
SplineSet
54 445 m 2xac
 54 637 l 2
 54 648 60 675 82 675 c 0x34
 92 675 146 660 176 660 c 2
 370 660 l 2x2c
 439 660 487 675 511 675 c 0
 528 675 550 671 550 655 c 0
 550 639 524 626 511 620 c 0
 439 586 367 511 302 415 c 1
 521 415 l 2
 532 415 544 408 544 398 c 0x32
 548 318 551 265 561 210 c 0
 564 193 560 173 546 173 c 0
 534 173 525 186 523 199 c 0
 510 275 466 330 421 330 c 2
 250 330 l 1
 185 211 122 72 110 -61 c 0x3180
 109 -75 102 -90 88 -90 c 0
 75 -90 74 -74 74 -61 c 0xb2
 74 223 226 495 355 604 c 0
 363 611 343 620 329 620 c 2
 243 620 l 2
 148 620 109 542 92 447 c 0
 88 427 84 399 71 399 c 0
 58 399 54 427 54 445 c 2xac
EndSplineSet
Validated: 33
EndChar
StartChar: G
Encoding: 71 71 6
Width: 521
Flags: W
HStem: -90 21G<239.5 250> -90 21G<239.5 250> 620 40<158.308 307.999 408.948 486.749> 655 20G<57 73>
VStem: 40 38<399.319 517.961> 381 110<257.239 488.317>
LayerCount: 2
Fore
SplineSet
272 620 m 2xac
 229 620 l 2xac
 134 620 95 542 78 447 c 0
 74 427 70 399 57 399 c 0
 44 399 40 427 40 445 c 2
 40 637 l 2
 40 648 46 675 68 675 c 0x1c
 78 675 132 660 162 660 c 2
 448 660 l 2
 465 660 487 658 487 642 c 0
 487 626 458 623 448 622 c 0
 419 618 396 616 412 594 c 0
 441 553 491 476 491 390 c 8
 491 191 347 23 275 -72 c 0
 266 -83 257 -90 243 -90 c 8
 236 -90 230 -83 230 -76 c 16
 230 -68 233 -62 240 -53 c 0
 309 43 381 147 381 292 c 8
 381 416 366 513 308 601 c 0
 304 607 287 620 272 620 c 2xac
EndSplineSet
Validated: 33
EndChar
StartChar: I
Encoding: 73 73 8
Width: 397
Flags: W
HStem: -90 21G<196 211.5> -90 21G<196 211.5> 516 21G<312.5 333.5> 558 102<118.272 183.235 249.001 285.204> 655 20G<57 73>
VStem: 40 38<399.319 504.422> 185 120<441.055 488.686> 185 64<498.411 557.985> 185 35<-89.9074 247.554>
LayerCount: 2
Fore
SplineSet
249 537 m 0x35
 249 529 265 493 291 486 c 0
 297 484 305 480 305 472 c 16x36
 305 460 292 451 286 444 c 0
 235 383 220 205 220 48 c 18
 220 -46 l 10
 220 -64 219 -90 204 -90 c 0
 188 -90 185 -76 185 -45 c 10xb480
 185 524 l 2
 185 537 177 558 167 558 c 0xb5
 143 558 95 542 78 447 c 0
 74 427 70 399 57 399 c 0
 44 399 40 427 40 445 c 2
 40 637 l 2
 40 648 46 675 68 675 c 0x2d
 78 675 132 660 162 660 c 10
 354 660 l 18
 377 660 390 658 390 645 c 0
 390 641 361 604 341 531 c 8
 339 524 338 516 329 516 c 8
 296 516 266 558 257 558 c 0
 250 558 249 546 249 537 c 0x35
EndSplineSet
Validated: 1
EndChar
StartChar: O
Encoding: 79 79 14
Width: 566
Flags: W
HStem: -90 21G<315.5 326> -90 21G<315.5 326> 266 150<257.463 316.408> 620 40<29.1292 98.7533 203.63 311.282 468.508 535.65>
VStem: 33 91<229.687 442.078> 235 104<288.227 393.274> 439 79<231.34 431.299>
LayerCount: 2
Fore
SplineSet
291 416 m 0x3e
 324 416 339 387 339 354 c 8
 339 312 313 266 279 266 c 8
 251 266 235 295 235 323 c 16
 235 365 260 416 291 416 c 0x3e
498 660 m 18
 515 660 537 656 537 644 c 0
 537 632 506 623 497 622 c 0
 479 620 468 613 468 594 c 0
 468 581 518 466 518 390 c 0
 518 198 423 23 351 -72 c 0
 342 -83 333 -90 319 -90 c 8xbe
 312 -90 306 -83 306 -76 c 16
 306 -68 310 -62 317 -53 c 0
 386 43 439 154 439 292 c 0
 439 387 391 620 244 620 c 2
 213 620 l 2
 195 620 196 608 204 607 c 0
 234 601 250 589 250 581 c 0
 250 573 231 565 221 555 c 8
 139 473 119 390 124 274 c 24
 129 161 170 96 243 9 c 8
 247 4 251 -1 251 -5 c 8
 251 -13 241 -14 234 -14 c 8
 224 -14 216 -12 209 -5 c 0
 86 110 33 225 33 392 c 0
 33 467 46 502 92 582 c 0
 105 605 103 617 63 620 c 0
 40 622 29 628 29 642 c 0
 29 655 45 660 77 660 c 2
 498 660 l 18
EndSplineSet
Validated: 33
EndChar
StartChar: R
Encoding: 82 82 17
Width: 514
Flags: W
HStem: -90 21G<246.5 255.5> -90 21G<246.5 255.5> 591 75<155.947 318.903>
VStem: 93 111<198.757 418.749>
LayerCount: 2
Fore
SplineSet
15 528 m 0xb0
 15 567 126 666 269 666 c 0
 374 666 502 587 502 526 c 0
 502 513 495 501 469 496 c 8
 376 479 322 465 236 425 c 24
 214 415 204 396 204 372 c 0
 204 70 262 -50 262 -68 c 8
 262 -78 260 -90 251 -90 c 8
 242 -90 238 -83 233 -75 c 16
 153 64 93 235 93 312 c 0
 93 361 95 422 146 447 c 16
 226 486 257 497 332 517 c 16
 343 520 345 526 345 535 c 0
 345 561 303 591 212 591 c 0
 138 591 100 567 44 521 c 0
 38 516 33 512 25 512 c 8
 18 512 15 518 15 528 c 0xb0
EndSplineSet
Validated: 1
EndChar
StartChar: S
Encoding: 83 83 18
Width: 472
Flags: W
HStem: -90 21G<178 187.5> -90 21G<178 187.5> 494 20G<15 79.5> 495 21G<439 447> 620 40<243.633 331.386> 655 20G<91.5 114>
VStem: 278 57<37.0156 226.742> 423 31<495.718 541.513>
LayerCount: 2
Fore
SplineSet
79 653 m 0xab
 79 666 84 675 99 675 c 0xa7
 129 675 189 660 235 660 c 10
 357 660 l 26
 378 660 401 656 408 646 c 0
 433 613 454 565 454 527 c 0
 454 507 450 495 444 495 c 8x1b
 434 495 425 501 423 510 c 0
 415 555 331 620 250 620 c 0
 239 620 236 611 244 606 c 0
 300 574 363 440 363 358 c 0
 363 344 365 319 354 319 c 0
 344 319 341 329 337 338 c 0
 320 377 249 416 205 429 c 0
 201 430 199 421 202 418 c 0
 288 332 335 252 335 117 c 0
 335 33 261 -46 210 -79 c 0
 199 -86 193 -90 182 -90 c 8
 174 -90 168 -81 169 -73 c 24
 170 -63 178 -56 185 -52 c 0
 231 -26 278 36 278 102 c 0
 278 270 180 379 33 471 c 0
 21 479 8 483 8 498 c 0
 8 508 10 514 20 514 c 0
 139 514 187 493 250 467 c 0
 259 463 263 472 258 482 c 0
 236 528 180 578 98 626 c 0
 88 632 79 645 79 653 c 0xab
EndSplineSet
Validated: 33
EndChar
StartChar: T
Encoding: 84 84 19
Width: 502
Flags: W
HStem: 610 50<168.399 207.439> 827 30<91.0405 175.936>
VStem: 52 36<84.8792 151.715> 91 397<660 843>
LayerCount: 2
Fore
SplineSet
43 660 m 2
 347 660 l 2
 359 660 368 666 366 675 c 0
 349 749 255 802 113 827 c 0
 102 829 91 830 91 843 c 0
 91 855 105 857 115 857 c 0
 252 857 488 765 488 660 c 0
 488 635 368 566 286 531 c 0
 279 528 271 531 266 538 c 0
 245 568 182 610 160 610 c 0
 152 610 153 604 160 597 c 0
 220 543 275 453 275 364 c 0
 275 225 260 114 236 12 c 1
 241 12 245 12 250 12 c 0
 340 13 373 53 440 117 c 0
 450 127 458 138 471 138 c 0
 481 138 483 131 483 121 c 0
 483 104 312 -121 218 -121 c 0
 132 -121 52 82 52 121 c 0
 52 136 56 152 67 152 c 0
 77 152 86 144 88 130 c 0
 96 79 138 35 196 19 c 1
 196 139 196 248 177 331 c 0
 145 475 81 558 42 606 c 0
 30 620 17 628 17 647 c 0
 17 658 32 660 43 660 c 2
EndSplineSet
Validated: 1
EndChar
StartChar: U
Encoding: 85 85 20
Width: 549
VWidth: 0
Flags: W
HStem: -80 74<172.01 325.776> -80 40<414.344 501.871> 195 104<202.227 307.274> 622 38<448.134 515.226> 630 30<207.013 300.631>
VStem: 38 36<134.827 280.864> 180 150<217.463 276.408> 436 67<173.374 467.244>
LayerCount: 2
Fore
SplineSet
330 251 m 0x27
 330 220 279 195 237 195 c 8
 209 195 180 211 180 239 c 16
 180 273 226 299 268 299 c 16
 301 299 330 284 330 251 c 0x27
503 327 m 0
 503 235 463 76 417 -4 c 0
 404 -27 428 -37 468 -40 c 0
 491 -42 502 -48 502 -62 c 0
 502 -75 486 -80 454 -80 c 2x77
 227 -80 l 2
 119 -80 105 -35 88 -35 c 0
 77 -35 69 -100 52 -100 c 0
 38 -100 38 -78 38 -63 c 2
 38 178 l 2
 38 225 49 288 64 288 c 8
 73 288 74 277 74 266 c 0
 74 138 120 -6 248 -6 c 8
 397 -6 436 184 436 327 c 0
 436 464 376 630 235 630 c 0
 225 630 207 633 207 645 c 0
 207 656 217 660 231 660 c 10xaf
 476 660 l 18
 494 660 516 656 516 644 c 0
 516 632 485 623 476 622 c 0x37
 458 620 447 613 447 594 c 0
 447 581 503 529 503 327 c 0
EndSplineSet
Validated: 33
EndChar
StartChar: V
Encoding: 86 86 21
Width: 499
Flags: W
HStem: -90 21G<220 228.5> -90 21G<220 228.5> 620 40<58.1292 127.753 369.002 421.442>
VStem: 27 85<135.033 407.253> 408 64<120.329 378.14>
LayerCount: 2
Fore
SplineSet
234 -67 m 8xb8
 238 -72 242 -77 242 -81 c 8
 242 -89 232 -90 225 -90 c 8
 215 -90 207 -88 200 -81 c 0
 77 34 27 123 27 290 c 0
 27 365 75 502 121 582 c 0
 134 605 132 617 92 620 c 0
 69 622 58 628 58 642 c 0
 58 655 74 660 107 660 c 10
 383 660 l 18
 400 660 422 656 422 644 c 0
 422 632 410 623 401 622 c 0
 383 620 361 610 371 594 c 0
 435 492 472 416 472 286 c 0
 472 94 414 29 335 -54 c 0
 325 -64 317 -72 303 -72 c 8
 296 -72 290 -65 290 -58 c 16
 290 -50 293 -43 301 -35 c 0
 372 35 408 89 408 227 c 0
 408 322 374 492 266 595 c 0
 251 609 226 611 217 594 c 24
 160 481 112 413 112 288 c 8
 112 142 160 21 234 -67 c 8xb8
EndSplineSet
Validated: 33
EndChar
StartChar: W
Encoding: 87 87 22
Width: 601
Flags: W
HStem: -80 33<126.648 203.172> 495 21G<505 513.5> 620 40<43.2415 124.496 356.06 512.566>
VStem: 30 98<250.532 374.039> 363 105<279.942 413.139> 514 87<585.123 709.5>
LayerCount: 2
Fore
SplineSet
468 385 m 0
 468 256 326 23 259 -66 c 0
 250 -77 240 -80 227 -80 c 2
 157 -80 l 2
 145 -80 126 -77 126 -66 c 0
 126 -58 144 -52 173 -47 c 0
 196 -43 224 -16 252 23 c 1
 145 98 30 233 30 328 c 0
 30 340 49 369 55 380 c 0
 84 430 125 523 125 582 c 0
 125 608 127 617 87 620 c 0
 64 622 43 628 43 642 c 0
 43 655 59 660 93 660 c 2
 439 660 l 2
 538 660 552 735 582 735 c 0
 599 735 601 717 601 702 c 0
 601 622 586 587 546 528 c 0
 535 512 517 495 510 495 c 0
 500 495 499 509 499 520 c 0
 499 530 514 559 514 586 c 0
 514 611 513 620 474 620 c 2
 375 620 l 2
 359 620 356 612 356 597 c 0
 356 542 409 457 443 419 c 0
 462 398 468 398 468 385 c 0
271 53 m 1
 320 134 363 249 363 335 c 0
 363 461 317 538 249 597 c 0
 242 603 231 601 226 594 c 0
 171 520 128 449 128 324 c 0
 128 208 204 106 271 53 c 1
EndSplineSet
Validated: 33
EndChar
StartChar: Y
Encoding: 89 89 24
Width: 491
Flags: W
HStem: -90 27<308.792 419.974> 655 20G<71 85.5>
VStem: 20 81<-11.5 116.893> 217 41<-12.7852 166.109>
LayerCount: 2
Fore
SplineSet
46 657 m 0
 46 673 64 675 78 675 c 0
 93 675 123 660 152 660 c 2
 225 660 l 2
 238 660 246 653 245 643 c 1
 231 587 l 2
 226 569 232 550 241 550 c 0
 306 550 377 606 433 643 c 0
 441 648 451 660 465 660 c 0
 474 660 478 655 478 646 c 0
 478 635 473 631 461 623 c 0
 319 527 264 232 258 -37 c 1
 305 -52 356 -61 403 -63 c 0
 411 -63 420 -67 420 -76 c 0
 420 -90 404 -90 393 -90 c 0
 214 -90 20 -67 20 44 c 0
 20 112 91 186 103 198 c 0
 110 205 114 210 123 210 c 0
 132 210 132 206 132 197 c 0
 132 185 101 140 101 108 c 0
 101 55 144 14 203 -15 c 1
 206 32 217 95 217 162 c 0
 217 350 211 521 74 626 c 0
 61 636 46 646 46 657 c 0
EndSplineSet
Validated: 33
EndChar
StartChar: Z
Encoding: 90 90 25
Width: 345
Flags: W
HStem: 653 49<34.6453 177.843>
VStem: 180 35<-199.516 -58.8274>
LayerCount: 2
Fore
SplineSet
17 665 m 0
 17 680 84 702 153 702 c 0
 243 702 317 631 317 602 c 0
 317 597 313 595 308 595 c 0
 301 595 280 603 254 603 c 0
 197 603 144 573 144 552 c 0
 144 545 149 540 155 540 c 26
 299 540 l 26
 309 540 322 540 322 530 c 0
 322 520 308 511 298 504 c 0
 232 452 213 182 213 -57 c 0
 213 -96 215 -134 215 -170 c 0
 215 -183 211 -200 201 -200 c 0
 188 -200 181 -186 180 -172 c 0
 164 107 110 414 49 502 c 0
 40 515 30 532 30 537 c 0
 30 558 95 599 167 613 c 0
 176 615 184 617 184 624 c 0
 184 632 152 653 42 653 c 0
 32 653 17 655 17 665 c 0
EndSplineSet
Validated: 1
EndChar
StartChar: a
Encoding: 97 97 32
Width: 386
VWidth: 0
Flags: W
HStem: -90 21G<215 220> -90 21G<215 220> 437 43<306.98 374.548> 443 30<20.0528 102.516 150.914 247.995>
VStem: 38 82<148.797 337.941> 211 54<285.542 392.875>
LayerCount: 2
Fore
SplineSet
230 443 m 2x1c
 176 443 l 2
 146 443 120 387 120 268 c 0
 120 187 134 113 169 29 c 0
 171 23 188 -7 199 -7 c 0
 205 -7 222 27 242 55 c 0
 251 68 258 83 268 83 c 0
 273 83 280 71 278 66 c 0
 259 29 236 -39 231 -79 c 0
 230 -87 222 -90 218 -90 c 0
 212 -90 177 -48 166 -29 c 0
 124 39 38 140 38 243 c 0
 38 311 66 353 101 415 c 0
 114 437 79 440 45 443 c 0
 28 445 20 449 20 459 c 0
 20 469 32 473 56 473 c 2
 224 473 l 2x9c
 234 473 277 469 290 469 c 0
 295 469 353 480 358 480 c 0
 371 480 376 476 376 465 c 0
 376 453 364 445 344 437 c 0x2c
 294 418 265 377 265 321 c 0
 265 302 271 262 265 262 c 0
 243 262 211 308 211 345 c 0
 211 389 248 424 248 432 c 0
 248 438 241 443 230 443 c 2x1c
EndSplineSet
Validated: 33
EndChar
StartChar: c
Encoding: 99 99 34
Width: 456
Flags: W
HStem: -91 21G<59 70.5 384.5 398> 441 30<93.9994 361.998>
VStem: 50 44<403.895 441> 50 27<-90.8772 202.828> 362 44<400.301 441> 379 27<-90.8206 187.659>
LayerCount: 2
Fore
SplineSet
50 -57 m 10xd0
 50 458 l 2
 50 468 62 471 86 471 c 2
 377 471 l 2
 397 471 406 468 406 458 c 10
 406 -57 l 18
 406 -63 405 -91 391 -91 c 8
 378 -91 379 -72 379 -59 c 18
 379 39 l 10xd4
 379 166 354 287 299 355 c 0
 295 360 287 365 287 373 c 16
 287 378 294 382 301 384 c 16
 327 391 362 408 362 427 c 0
 362 438 359 441 348 441 c 2
 113 441 l 2
 93 441 94 438 94 429 c 0xe8
 94 415 137 387 157 382 c 0
 162 381 167 378 167 373 c 16
 167 364 158 357 153 352 c 0
 99 288 77 172 77 50 c 18
 77 -58 l 10
 77 -72 76 -91 65 -91 c 0
 53 -91 50 -80 50 -57 c 10xd0
EndSplineSet
Validated: 33
EndChar
StartChar: d
Encoding: 100 100 35
Width: 380
Flags: W
HStem: -89 21G<58 69.5> -89 21G<58 69.5> 443 41<181.141 265.911>
VStem: 50 26<-88.9451 230.028> 192 77<336.58 377.936> 241 35<239.467 348.4> 304 56<167.053 361.535>
LayerCount: 2
Fore
SplineSet
249 443 m 0xba
 95 443 76 194 76 52 c 2
 76 -56 l 10
 76 -70 75 -89 64 -89 c 0
 52 -89 50 -79 50 -56 c 10
 50 460 l 2
 50 470 62 473 86 473 c 2
 186 473 l 2
 228 473 241 484 254 484 c 0
 264 484 276 473 285 461 c 0
 333 397 360 314 360 246 c 0
 360 96 179 -86 153 -86 c 0
 145 -86 143 -83 143 -77 c 0
 143 -70 144 -68 149 -62 c 0
 164 -44 187 8 191 60 c 0
 192 69 192 71 198 75 c 0
 257 110 304 176 304 259 c 0
 304 304 298 337 284 381 c 0
 282 386 269 372 269 366 c 0xba
 269 361 276 338 276 328 c 0
 276 284 265 250 255 232 c 0
 252 226 249 218 242 218 c 8
 237 218 231 221 231 228 c 0
 231 235 241 262 241 277 c 0xb6
 241 303 225 340 204 352 c 0
 198 355 192 359 192 366 c 0
 192 373 199 374 206 376 c 0
 238 383 266 405 266 435 c 0
 266 441 255 443 249 443 c 0xba
EndSplineSet
Validated: 1
EndChar
StartChar: e
Encoding: 101 101 36
Width: 434
VWidth: 0
Flags: W
HStem: -83 30<156.593 369.993> 175 60<92.8901 337.859> 443 30<46.0466 288.114>
VStem: 46 46<3.64062 173.791> 46 29<259.651 342.871> 341 47<239.379 406.752> 367 21<65.0493 124.308>
LayerCount: 2
Fore
SplineSet
369 473 m 2xec
 382 473 388 467 388 459 c 10
 388 99 l 18
 388 82 387 65 377 65 c 8
 370 65 368 72 367 79 c 0
 358 131 346 175 300 175 c 18
 136 175 l 2
 106 175 92 173 92 143 c 0xf2
 92 -33 134 -53 267 -53 c 10
 350 -53 l 26
 360 -53 370 -60 370 -68 c 8
 370 -77 360 -83 351 -83 c 26
 65 -83 l 18
 51 -83 46 -75 46 -61 c 10
 46 310 l 18
 46 332 49 343 59 343 c 0
 68 343 73 332 75 319 c 0
 83 269 87 235 133 235 c 10
 268 235 l 18
 326 235 341 241 341 274 c 10
 341 323 l 2
 341 397 323 443 193 443 c 2
 71 443 l 2
 53 443 46 449 46 459 c 0
 46 469 58 473 82 473 c 2
 369 473 l 2xec
EndSplineSet
Validated: 1
EndChar
StartChar: g
Encoding: 103 103 38
Width: 401
Flags: W
HStem: -89 21G<190 198.5> -89 21G<190 198.5> 443 30<129.19 240.999 321.108 375.699> 464 20G<53 65>
VStem: 40 29<277.24 366.157> 296 83<155.172 358.902>
LayerCount: 2
Fore
SplineSet
214 443 m 2xac
 182 443 l 2xac
 111 443 82 384 69 313 c 0
 66 298 63 277 53 277 c 0
 43 277 40 298 40 312 c 2
 40 456 l 2
 40 464 45 484 61 484 c 0x1c
 69 484 110 473 132 473 c 2
 346 473 l 2
 359 473 376 472 376 460 c 0
 376 448 353 446 346 445 c 0
 324 442 307 440 319 424 c 0
 341 393 379 335 379 271 c 8
 379 122 271 -5 217 -76 c 0
 210 -85 204 -89 193 -89 c 8
 187 -89 183 -85 183 -79 c 16
 183 -73 186 -69 191 -62 c 0
 243 10 296 88 296 197 c 8
 296 290 284 363 241 429 c 0
 238 433 225 443 214 443 c 2xac
EndSplineSet
Validated: 33
EndChar
StartChar: i
Encoding: 105 105 40
Width: 297
Flags: W
HStem: -89 21G<147 158.5> -89 21G<147 158.5> 365 108<205.834 258.876> 397 76<84.6582 137.709 186.001 220.213> 464 20G<43 55>
VStem: 30 28<277.372 356.078> 138 90<301.369 348.989> 138 48<347.849 396.988> 138 27<-88.8772 204.033>
LayerCount: 2
Fore
SplineSet
186 381 m 0x15
 186 375 198 348 218 343 c 0
 223 342 228 338 228 332 c 16x16
 228 323 218 316 214 311 c 0
 176 265 165 131 165 14 c 18
 165 -56 l 10
 165 -70 164 -89 153 -89 c 0
 141 -89 138 -79 138 -56 c 10x9480
 138 371 l 2
 138 381 133 397 125 397 c 0x95
 107 397 71 384 58 313 c 0
 55 298 52 277 42 277 c 0
 32 277 30 298 30 312 c 2
 30 456 l 2
 30 464 35 484 51 484 c 0x0d
 59 484 99 473 121 473 c 10
 265 473 l 18x15
 282 473 292 472 292 462 c 0
 292 459 271 431 256 376 c 8
 255 371 253 365 246 365 c 8x25
 222 365 199 397 192 397 c 0
 187 397 186 388 186 381 c 0x15
EndSplineSet
Validated: 1
EndChar
StartChar: k
Encoding: 107 107 42
Width: 386
Flags: W
HStem: -89 21G<190 199> -89 21G<190 199> 443 30<114.608 236.999 309.041 363.716> 464 20G<102.5 115>
VStem: 20 55<117.748 341.631> 185 27<29.5364 135.072> 322 44<121.892 312.71>
LayerCount: 2
Fore
SplineSet
75 277 m 0x2e
 75 181 81 110 125 30 c 0
 136 11 149 -6 155 -6 c 0
 161 -6 178 41 185 84 c 0
 187 100 191 136 201 136 c 0
 210 136 212 119 212 114 c 0
 212 63 212 -19 212 -69 c 0
 212 -80 205 -89 193 -89 c 0
 187 -89 153 -57 137 -42 c 0
 66 25 20 146 20 240 c 0
 20 308 42 408 84 467 c 0
 86 469 98 484 107 484 c 0x9e
 123 484 140 473 167 473 c 10
 335 473 l 2
 348 473 364 472 364 460 c 0
 364 448 343 446 335 445 c 0
 313 442 296 440 308 424 c 0
 330 393 366 318 366 244 c 0
 366 157 344 100 290 34 c 0
 283 26 276 21 266 21 c 8
 260 21 256 25 256 31 c 16
 256 37 261 42 266 49 c 0
 298 90 322 135 322 197 c 0
 322 292 281 363 237 429 c 0
 234 433 222 443 211 443 c 2
 133 443 l 2
 113 443 114 440 114 431 c 0
 114 417 139 408 159 403 c 0
 163 401 169 398 169 392 c 16
 169 383 162 380 155 378 c 0
 105 365 75 328 75 277 c 0x2e
EndSplineSet
Validated: 33
EndChar
StartChar: l
Encoding: 108 108 43
Width: 378
VWidth: 0
Flags: W
HStem: -81 23<284.452 357.962> 444 30<7.14062 48.9656 122.634 291.261> 466 20G<340 354.5> 466 20G<340 354.5>
VStem: 178 36<11.7999 267.865> 304 60<337.387 473.62>
LayerCount: 2
Fore
SplineSet
214 201 m 2xcc
 214 112 l 2
 214 14 251 -58 337 -58 c 0
 345 -58 358 -60 358 -69 c 0
 358 -77 350 -81 340 -81 c 10
 192 -81 l 18
 184 -81 178 -74 178 -56 c 2
 178 130 l 2
 178 254 140 384 29 441 c 0
 14 449 7 451 7 461 c 0
 7 471 19 474 43 474 c 10
 276 474 l 26xcc
 304 474 332 486 348 486 c 0xac
 361 486 364 478 364 465 c 0
 364 386 355 331 305 296 c 0
 293 288 281 283 276 283 c 0
 268 283 264 288 264 295 c 16
 264 303 304 338 304 372 c 0
 304 421 296 444 246 444 c 2
 138 444 l 18
 119 444 115 439 123 432 c 0
 186 381 214 312 214 201 c 2xcc
EndSplineSet
Validated: 1
EndChar
StartChar: m
Encoding: 109 109 44
Width: 438
Flags: W
HStem: -91 21G<247 255> 442 29<36.0347 61.9949 139.338 201.519>
VStem: 42 26<189.366 324.465> 62 76<356.365 441.65> 281 105<376.976 443.82> 348 52<128.263 371.499>
LayerCount: 2
Fore
SplineSet
42 257 m 0xe4
 42 375 62 415 62 428 c 0
 62 438 55 441 50 442 c 0
 44 443 36 448 36 456 c 0
 36 466 48 471 58 471 c 10
 169 471 l 18
 183 471 202 467 202 459 c 0
 202 449 187 446 172 444 c 0
 151 441 138 436 138 420 c 0
 138 361 170 313 202 283 c 0
 211 275 213 277 221 284 c 0
 267 323 281 355 281 415 c 0
 281 431 275 442 264 443 c 0
 253 444 240 452 240 461 c 0
 240 470 254 471 276 471 c 10
 385 471 l 18
 398 471 414 468 414 459 c 0
 414 450 405 444 398 443 c 0
 385 442 386 436 386 422 c 0xd8
 386 412 400 326 400 269 c 0
 400 125 328 -7 274 -78 c 0
 267 -86 260 -91 250 -91 c 8
 244 -91 241 -87 241 -81 c 16
 241 -75 244 -70 249 -63 c 0
 301 9 348 91 348 195 c 0
 348 266 348 328 332 371 c 0
 330 376 323 377 321 369 c 0
 301 305 248 260 224 244 c 0
 215 238 206 234 199 241 c 0
 178 261 127 299 108 351 c 0
 106 357 98 357 95 353 c 0
 80 333 68 290 68 247 c 0
 68 213 82 177 82 171 c 0
 82 166 81 159 74 159 c 0
 66 159 42 206 42 257 c 0xe4
EndSplineSet
Validated: 1
EndChar
StartChar: n
Encoding: 110 110 45
Width: 321
Flags: W
HStem: -91 21G<29 37> 451 20G<36 176.5>
VStem: 12 125<395.5 463> 96 71<108.286 302.78> 257 44<278.997 420.742>
LayerCount: 2
Fore
SplineSet
96 180 m 0xd8
 96 274 78 375 38 428 c 0
 30 438 12 448 12 458 c 0
 12 468 24 471 48 471 c 10
 170 471 l 26
 183 471 202 470 202 459 c 0
 202 451 180 445 164 441 c 0
 150 438 137 427 137 413 c 0xe8
 137 378 170 318 209 272 c 0
 220 259 226 261 232 272 c 0
 233 275 257 310 257 349 c 0
 257 407 249 431 249 439 c 0
 249 447 249 455 257 455 c 0
 266 455 301 385 301 335 c 0
 301 262 256 159 238 159 c 0
 230 159 186 204 165 258 c 0
 162 266 155 260 160 244 c 0
 164 230 167 217 167 197 c 0
 167 133 110 20 53 -77 c 0
 48 -85 42 -91 32 -91 c 24
 26 -91 23 -82 26 -76 c 0
 65 -2 96 71 96 180 c 0xd8
EndSplineSet
Validated: 1
EndChar
StartChar: o
Encoding: 111 111 46
Width: 422
Flags: W
HStem: -91 21G<235 243> 176 112<188.098 240.067> 441 30<20.1643 71.1562 151.722 232.354>
VStem: 24 68<134.351 322.017> 175 78<186.823 277.533> 328 59<128.263 316.455>
LayerCount: 2
Fore
SplineSet
217 288 m 0
 242 288 253 267 253 242 c 8
 253 211 234 176 208 176 c 8
 187 176 175 198 175 219 c 16
 175 251 194 288 217 288 c 0
372 471 m 18
 385 471 402 468 402 459 c 0
 402 450 379 444 372 443 c 0
 358 441 350 436 350 422 c 0
 350 412 387 326 387 269 c 0
 387 125 316 -7 262 -78 c 0
 255 -86 248 -91 238 -91 c 8
 232 -91 228 -87 228 -81 c 16
 228 -75 231 -70 236 -63 c 0
 288 9 328 91 328 195 c 0
 328 266 292 441 182 441 c 2
 158 441 l 2
 144 441 146 432 152 431 c 0
 175 427 186 418 186 412 c 0
 186 406 171 400 164 393 c 8
 103 332 88 269 92 182 c 24
 95 97 126 48 181 -17 c 8
 184 -21 187 -24 187 -27 c 8
 187 -33 179 -34 174 -34 c 8
 166 -34 161 -32 156 -27 c 0
 64 59 24 145 24 270 c 0
 24 326 34 353 68 413 c 0
 78 430 76 439 46 441 c 0
 29 443 20 448 20 458 c 0
 20 468 32 471 56 471 c 2
 372 471 l 18
EndSplineSet
Validated: 33
EndChar
StartChar: s
Encoding: 115 115 50
Width: 350
Flags: W
HStem: -89 453<15 136> 443 30<182.725 248.219> 464 20G<68.5 85>
VStem: 208 43<-4.35129 161.168> 317 23<349.648 382.932>
LayerCount: 2
Fore
SplineSet
59 468 m 0xd8
 59 478 63 484 74 484 c 0xb8
 96 484 142 473 176 473 c 10
 268 473 l 26
 284 473 301 470 306 463 c 0
 325 438 340 401 340 373 c 0
 340 358 337 349 333 349 c 8
 325 349 318 354 317 361 c 0
 311 395 248 443 187 443 c 0
 179 443 177 437 183 433 c 0
 225 409 272 309 272 247 c 0
 272 237 273 217 265 217 c 0
 257 217 255 225 252 232 c 0
 239 261 187 290 154 300 c 0
 151 301 149 294 151 292 c 0
 215 228 251 167 251 66 c 0
 251 3 195 -56 157 -81 c 0
 148 -87 145 -89 136 -89 c 8
 130 -89 125 -83 126 -77 c 24
 127 -69 133 -64 138 -61 c 0
 172 -41 208 5 208 55 c 0
 208 181 134 262 24 331 c 0
 15 337 6 341 6 352 c 0
 6 360 7 364 15 364 c 0
 104 364 140 348 187 328 c 0
 194 325 196 333 193 340 c 0
 177 374 135 412 73 448 c 0
 66 452 59 462 59 468 c 0xd8
EndSplineSet
Validated: 1
EndChar
StartChar: t
Encoding: 116 116 51
Width: 382
Flags: W
HStem: -94 100<175 214.317> 395 97<183.576 259.55> 455 37<128.456 156.5> 617 23<66.0261 130.036>
VStem: 37 27<61.0962 110.786> 66 298<492 629>
LayerCount: 2
Fore
SplineSet
30 492 m 2xbc
 258 492 l 2xdc
 267 492 275 496 273 503 c 0
 260 559 189 598 83 617 c 0
 75 618 66 619 66 629 c 0
 66 638 77 640 84 640 c 0
 187 640 364 571 364 492 c 0xbc
 364 473 275 421 213 395 c 0xdc
 207 393 201 396 198 401 c 0
 182 423 134 455 118 455 c 0
 112 455 112 450 118 445 c 0
 163 404 204 337 204 270 c 0
 204 165 193 83 175 6 c 1
 178 6 182 6 186 6 c 0
 253 7 278 37 328 85 c 0
 336 92 341 101 351 101 c 0
 359 101 360 96 360 88 c 0
 360 75 232 -94 162 -94 c 0
 98 -94 37 59 37 88 c 0
 37 99 40 111 48 111 c 0
 56 111 62 105 64 95 c 0
 70 57 102 23 145 11 c 1
 145 101 145 183 131 245 c 0
 107 353 59 415 30 451 c 0
 21 462 11 468 11 482 c 0
 11 490 22 492 30 492 c 2xbc
EndSplineSet
Validated: 1
EndChar
StartChar: u
Encoding: 117 117 52
Width: 424
VWidth: 0
Flags: W
HStem: -85 56<133.25 262.767> -85 30<321.851 387.941> 121 78<156.823 248.281> 447 23<166.04 237.253 351.75 397.934>
VStem: 40 27<76.6204 186.432> 146 113<134.33 186.067> 338 50<84.086 340.889>
LayerCount: 2
Fore
SplineSet
259 163 m 0x3e
 259 140 221 121 189 121 c 8
 168 121 146 133 146 154 c 16
 146 180 181 199 212 199 c 16
 237 199 259 188 259 163 c 0x3e
388 220 m 0
 388 151 358 32 324 -28 c 0
 314 -45 332 -52 362 -55 c 0
 379 -57 388 -61 388 -71 c 0
 388 -81 376 -85 352 -85 c 2x7e
 182 -85 l 2
 101 -85 90 -51 77 -51 c 0
 69 -51 63 -100 50 -100 c 0
 40 -100 40 -83 40 -72 c 2
 40 109 l 2
 40 144 48 191 59 191 c 8
 66 191 67 183 67 175 c 0
 67 79 101 -29 197 -29 c 8xbe
 309 -29 338 113 338 220 c 0
 338 323 294 447 188 447 c 0
 180 447 166 450 166 459 c 0
 166 467 174 470 184 470 c 10
 368 470 l 18
 382 470 398 467 398 458 c 0
 398 449 375 442 368 441 c 0
 354 439 346 435 346 421 c 0
 346 411 388 372 388 220 c 0
EndSplineSet
Validated: 33
EndChar
StartChar: w
Encoding: 119 119 54
Width: 449
Flags: W
HStem: -73 25<94.0185 152.351> 452 30<31.1039 92.4271 266.025 383.109> 518 20G<424 441.5>
VStem: 21 74<163.526 275.316> 271 79<179.805 302.991> 384 66<415.448 513.782>
LayerCount: 2
Fore
SplineSet
350 276 m 0
 350 179 243 4 193 -63 c 0
 186 -71 179 -73 169 -73 c 2
 117 -73 l 2
 108 -73 93 -71 93 -63 c 0
 93 -57 107 -52 129 -48 c 0
 146 -45 167 -25 188 4 c 1
 108 60 21 162 21 233 c 0
 21 242 36 264 40 272 c 0
 62 310 93 379 93 423 c 0
 93 443 94 450 64 452 c 0
 47 454 31 458 31 468 c 0
 31 478 43 482 69 482 c 2
 328 482 l 2
 402 482 413 538 435 538 c 0
 448 538 450 524 450 513 c 0
 450 453 438 427 408 383 c 0
 400 371 386 358 381 358 c 0
 373 358 373 369 373 377 c 0
 373 385 384 406 384 426 c 0
 384 445 383 452 354 452 c 2
 280 452 l 2
 268 452 266 446 266 435 c 0
 266 394 305 329 331 301 c 0
 345 285 350 286 350 276 c 0
202 27 m 1
 239 88 271 174 271 238 c 0
 271 332 237 391 186 435 c 0
 181 439 172 437 168 432 c 0
 127 376 95 324 95 230 c 0
 95 143 152 67 202 27 c 1
EndSplineSet
Validated: 33
EndChar
StartChar: z
Encoding: 122 122 57
Width: 259
Flags: W
HStem: 457 37<21.625 136.791>
VStem: 135 27<-181.695 -76.3594>
LayerCount: 2
Fore
SplineSet
13 467 m 0
 13 478 63 494 115 494 c 0
 183 494 238 441 238 419 c 0
 238 415 235 414 231 414 c 0
 226 414 211 420 191 420 c 0
 148 420 108 398 108 382 c 0
 108 377 113 373 117 373 c 26
 225 373 l 26
 233 373 242 373 242 365 c 0
 242 357 232 351 224 346 c 0
 174 307 160 104 160 -75 c 0
 160 -104 162 -133 162 -160 c 0
 162 -170 159 -182 151 -182 c 0
 141 -182 136 -171 135 -161 c 0
 123 48 83 278 37 344 c 0
 30 354 23 367 23 371 c 0
 23 387 72 417 126 427 c 0
 133 429 138 431 138 436 c 0
 138 442 114 457 32 457 c 0
 24 457 13 459 13 467 c 0
EndSplineSet
Validated: 1
EndChar
